<?xml version="1.0" encoding="iso-8859-1"?>
<!-- Generator: Adobe Illustrator 19.0.0, SVG Export Plug-In . SVG Version: 6.00 Build 0)  -->
<svg version="1.1" id="Capa_1" xmlns="http://www.w3.org/2000/svg" xmlns:xlink="http://www.w3.org/1999/xlink" x="0px" y="0px"
	 viewBox="0 0 368.004 368.004" style="enable-background:new 0 0 368.004 368.004;" xml:space="preserve">
<g>
	<g>
		<path d="M362.754,0.492c-3.16-1.16-6.696-0.224-8.856,2.344L184.002,203.62L14.106,2.836c-2.168-2.56-5.712-3.504-8.856-2.344
			c-3.152,1.16-5.248,4.16-5.248,7.512v144c0,1.888,0.672,3.72,1.896,5.168l176,208c1.52,1.8,3.752,2.832,6.104,2.832
			s4.584-1.032,6.104-2.832l176-208c1.224-1.448,1.896-3.28,1.896-5.168v-144C368.002,4.652,365.906,1.652,362.754,0.492z
			 M352.002,149.076l-168,198.544l-168-198.544V29.844l161.896,191.328c3.04,3.592,9.168,3.592,12.208,0L352.002,29.844V149.076z"/>
	</g>
</g>
<g>
</g>
<g>
</g>
<g>
</g>
<g>
</g>
<g>
</g>
<g>
</g>
<g>
</g>
<g>
</g>
<g>
</g>
<g>
</g>
<g>
</g>
<g>
</g>
<g>
</g>
<g>
</g>
<g>
</g>
</svg>
